# xmcd
#
# Track frame offsets:
#	150
#	14586
#	26211
#	42469
#	57427
#	72187
#	86893
#	101560
#	117442
#	133910
#	151239
#	167277
#	185560
#	200669
#
# Disc length: 2964 seconds
#
# Revision: 1
# Processed by: cddbd v1.5.2PL0 Copyright (c) Steve Scherf et al.
# Submitted via: audiograbber 1.83.01
#
DISCID=cb0b920e
DTITLE=Miranda Lambert - Wildcard
DYEAR=2019
DGENRE=Country
TTITLE0=White Trash
TTITLE1=Mess with My Head
TTITLE2=It All Comes Out in the Wash
TTITLE3=Settling Down
TTITLE4=Holy Water
TTITLE5=Way Too Pretty for Prison (feat. Maren Morris)
TTITLE6=Locomotive
TTITLE7=Bluebird
TTITLE8=How Dare You Love
TTITLE9=Fire Escape
TTITLE10=Pretty Bitchin'
TTITLE11=Tequila Does
TTITLE12=Track Record
TTITLE13=Dark Bars
EXTD=
EXTT0=
EXTT1=
EXTT2=
EXTT3=
EXTT4=
EXTT5=
EXTT6=
EXTT7=
EXTT8=
EXTT9=
EXTT10=
EXTT11=
EXTT12=
EXTT13=
PLAYORDER=
